# xmcd
# Track frame offsets:
# 150
# 37162
# 59950
# 107490
# 127554
# 145130
# 166523
# 187832
# 206805
# 226855
#
# Disc length: 3290 seconds
# Revision: 0
# Processed by: cddbd v1.4PL0 Copyright (c) Steve Scherf et al.
# Submitted via: VisiTrax 2.9.5.181 - For more info visit www.synapsa.com
#
DISCID=810cd80a
DTITLE=Peggy Scott-Adams - Live In Alabama and More
DYEAR=2000
DGENRE=
TTITLE0=That's How I Do It
TTITLE1=Burning
TTITLE2=I'll Take Care Of You
TTITLE3=Sweaty Men
TTITLE4=New Smash
TTITLE5=I'm Getting What I Want
TTITLE6=You, Her, And His
TTITLE7=Be Careful In The Name Of Love
TTITLE8=Sweaty Men - Doggy Style Mix
TTITLE9=Sweaty Men - Back That Thing Up Mix
EXTD=Miss Butch Records - MB 4013 - 2000\nDistributed by Mardi Gras Record
EXTD=s -800-895-0441
EXTT0=
EXTT1=
EXTT2=
EXTT3=
EXTT4=
EXTT5=
EXTT6=
EXTT7=
EXTT8=
EXTT9=
PLAYORDER=
